<svg width="24" height="24" viewBox="0 0 24 24" fill="none" xmlns="http://www.w3.org/2000/svg">
<g clip-path="url(#clip0)">
<path d="M23.433 11.2296C23.0737 10.8982 22.585 10.6935 22.0921 10.6679C21.5323 10.6389 21.0079 10.8385 20.6174 11.2293L17.9488 13.8698C17.8961 13.7785 17.8358 13.6922 17.7682 13.6122C17.4399 13.2224 16.9598 13.0078 16.4166 13.0078H12.6808C11.9764 13.0078 11.2892 12.9164 10.6385 12.7364C8.94183 12.2671 7.32098 12.6099 5.9508 13.7283C5.39361 14.1831 4.98711 14.6779 4.73003 15.0386L4.06023 14.3886C3.97216 14.3031 3.85278 14.2545 3.72991 14.2545C3.72881 14.2545 3.7279 14.2545 3.7268 14.2545C3.59954 14.2554 3.47649 14.3084 3.38824 14.3999L0.132071 17.7802C0.0449128 17.8707 -0.00251153 17.9923 0.000235056 18.1179C0.00298164 18.2437 0.0555329 18.363 0.146536 18.4497L5.6538 23.6936C5.74517 23.7806 5.86236 23.824 5.97936 23.824C6.10223 23.824 6.22509 23.7762 6.31756 23.6814L9.54333 20.3719C9.6314 20.2814 9.68029 20.1579 9.67791 20.0315C9.67553 19.907 9.62335 19.7869 9.53399 19.7001L9.25311 19.4276L9.89599 19.3553C10.2849 19.3101 10.6804 19.2872 11.0719 19.2872H16.7557C17.6793 19.2872 18.4637 19.0852 19.0873 18.6868C19.0925 18.6835 19.0976 18.68 19.1027 18.6765C19.3261 18.5213 19.5288 18.3372 19.705 18.1298L23.5352 13.6237C24.1907 12.8527 24.1497 11.8905 23.433 11.2296ZM5.9671 22.6882L1.14153 18.0933L3.74108 15.3945L8.53845 20.05L5.9671 22.6882ZM22.8157 13.0122L18.9855 17.5184C18.864 17.6614 18.7246 17.7885 18.571 17.8961C18.1028 18.1926 17.4921 18.3431 16.7557 18.3431H11.0717C10.6442 18.3431 10.2118 18.3682 9.78869 18.4174L8.37548 18.576L5.4165 15.7045C5.62212 15.3997 6.00024 14.9069 6.54791 14.4598C7.68646 13.5303 8.97808 13.2566 10.3867 13.6464C11.1195 13.8491 11.8913 13.952 12.6808 13.952H16.4166C17.0875 13.952 17.2665 14.5332 17.2665 14.8765C17.2665 15.1274 17.186 15.3662 17.0455 15.5317C16.8932 15.7109 16.6766 15.8018 16.4017 15.8018H13.1498C12.889 15.8018 12.6777 16.0133 12.6777 16.274C12.6777 16.5347 12.889 16.746 13.1498 16.746H16.4017C16.9507 16.746 17.4348 16.5318 17.7651 16.1429C18.04 15.8195 18.1967 15.3944 18.2099 14.9399L21.2833 11.8987C21.7226 11.4594 22.4089 11.5697 22.7928 11.9238C22.9913 12.1069 23.2583 12.4916 22.8157 13.0122Z" fill="#122261"/>
<path d="M11.6774 16.1482C11.6179 15.8942 11.3639 15.7369 11.11 15.7963C10.8562 15.8558 10.6985 16.1097 10.7582 16.3637L10.7626 16.3829C10.8137 16.6005 11.0076 16.7473 11.2219 16.7473C11.2576 16.7473 11.2938 16.7433 11.3301 16.7349C11.584 16.6754 11.7415 16.4212 11.682 16.1674L11.6774 16.1482Z" fill="#122261"/>
<path d="M3.1911 10.1484H7.79145C8.04193 10.1484 8.27375 10.0671 8.46234 9.92981C8.65094 10.0671 8.88275 10.1484 9.13324 10.1484H13.7338C13.9843 10.1484 14.2161 10.0671 14.4047 9.92981C14.5933 10.0671 14.8251 10.1484 15.0756 10.1484H19.6759C20.3062 10.1484 20.8189 9.63556 20.8189 9.00531V6.86005C20.8189 5.89655 20.2796 5.05957 19.4725 4.64667C19.8636 4.17499 20.0991 3.57001 20.0991 2.91083C20.0991 1.40918 18.8774 0.1875 17.3757 0.1875C15.8741 0.1875 14.6524 1.40918 14.6524 2.91083C14.6524 3.57001 14.8879 4.17517 15.279 4.64667C14.9302 4.82538 14.6315 5.08338 14.4047 5.3963C14.1778 5.08319 13.8792 4.8252 13.5302 4.64667C13.9213 4.17517 14.1567 3.57001 14.1567 2.91083C14.1567 1.40918 12.9351 0.1875 11.4334 0.1875C9.93177 0.1875 8.71009 1.40918 8.71009 2.91083C8.71009 3.57001 8.94574 4.17517 9.33686 4.64685C8.98786 4.82538 8.68921 5.08338 8.46234 5.39649C8.23548 5.08338 7.93683 4.82538 7.58783 4.64667C7.97895 4.17517 8.21442 3.57001 8.21442 2.91101C8.21442 1.40918 6.99274 0.1875 5.49109 0.1875C3.98962 0.1875 2.76794 1.40918 2.76794 2.91101C2.76794 3.57001 3.00342 4.17517 3.39453 4.64685C2.5874 5.05976 2.04797 5.89691 2.04797 6.86023V9.00531C2.04797 9.63556 2.56085 10.1484 3.1911 10.1484ZM17.3759 1.13178C18.3568 1.13178 19.155 1.92975 19.155 2.91083C19.155 3.89173 18.3568 4.68988 17.3759 4.68988C16.3948 4.68988 15.5969 3.89191 15.5969 2.91083C15.5967 1.92975 16.3948 1.13178 17.3759 1.13178ZM16.1493 5.34119C16.5183 5.52814 16.9348 5.63416 17.3757 5.63416C17.8168 5.63416 18.2334 5.52814 18.6022 5.34119C19.3359 5.469 19.8748 6.10126 19.8748 6.86005V9.00531C19.8748 9.11499 19.7856 9.20417 19.6759 9.20417H15.0756C14.9661 9.20417 14.8769 9.11499 14.8769 9.00531V6.86005C14.8767 6.10144 15.4158 5.469 16.1493 5.34119ZM11.4336 1.13178C12.4145 1.13178 13.2127 1.92975 13.2127 2.91083C13.2127 3.89173 12.4145 4.68988 11.4336 4.68988C10.4525 4.68988 9.65454 3.89191 9.65454 2.91083C9.65454 1.92975 10.4525 1.13178 11.4336 1.13178ZM10.2072 5.34119C10.5759 5.52814 10.9925 5.63416 11.4336 5.63416C11.8747 5.63416 12.2911 5.52814 12.66 5.34119C13.3936 5.469 13.9326 6.10126 13.9326 6.86005V9.00531C13.9326 9.11499 13.8434 9.20417 13.7338 9.20417H9.13343C9.02375 9.20417 8.93457 9.11499 8.93457 9.00531V6.86005C8.93457 6.10144 9.47364 5.469 10.2072 5.34119ZM5.49127 1.13178C6.47217 1.13178 7.27033 1.92975 7.27033 2.91083C7.27033 3.89173 6.47217 4.68988 5.49127 4.68988C4.51038 4.68988 3.71222 3.89173 3.71222 2.91083C3.71222 1.92975 4.51038 1.13178 5.49127 1.13178ZM2.99225 6.86005C2.99225 6.10144 3.53131 5.469 4.26483 5.34119C4.63379 5.52814 5.05017 5.63416 5.49127 5.63416C5.93237 5.63416 6.34876 5.52814 6.71771 5.34119C7.45142 5.469 7.9903 6.10126 7.9903 6.86005V9.00531C7.9903 9.11499 7.90113 9.20417 7.79145 9.20417H3.1911C3.08142 9.20417 2.99225 9.11499 2.99225 9.00531V6.86005Z" fill="#122261"/>
</g>
<defs>
<clipPath id="clip0">
<rect width="24" height="24" fill="white"/>
</clipPath>
</defs>
</svg>
