<svg width="24" height="24" viewBox="0 0 24 24" fill="none" xmlns="http://www.w3.org/2000/svg">
<g clip-path="url(#clip0)">
<path d="M21.2869 14.4764H20.7515V11.6263C20.7515 10.5621 19.8857 9.69623 18.8215 9.69623H18.1746L20.0612 6.12288C20.2576 5.75077 20.2973 5.32448 20.1727 4.92257C20.048 4.52019 19.7737 4.19051 19.4003 3.99424L12.1455 0.181113C11.3762 -0.223333 10.4202 0.0725014 10.0146 0.84047L5.33906 9.69623H4.17428C3.11006 9.69623 2.24426 10.5621 2.24426 11.6263V22.0699C2.24426 23.1342 3.11006 24 4.17428 24H18.8215C19.8857 24 20.7516 23.1342 20.7516 22.0699V19.2198H21.287C21.5459 19.2198 21.7558 19.0099 21.7558 18.7511V14.9452C21.7557 14.6863 21.5458 14.4764 21.2869 14.4764ZM10.8437 1.2782C11.0083 0.966473 11.3966 0.846611 11.7094 1.01096L18.9642 4.82408C19.1156 4.90363 19.2268 5.03718 19.2773 5.20007C19.3276 5.36245 19.3116 5.53472 19.2322 5.68515L17.1145 9.69623H15.8562L17.0523 7.43081C17.1104 7.3207 17.1223 7.19207 17.0855 7.07314C17.0486 6.95427 16.966 6.85494 16.8558 6.797C16.5487 6.6356 16.3231 6.36457 16.2206 6.0339C16.1184 5.70404 16.1509 5.35411 16.3122 5.04857C16.3704 4.93846 16.3823 4.80983 16.3454 4.69091C16.3086 4.57203 16.2259 4.4727 16.1158 4.41476L13.6556 3.12174C13.4268 3.0015 13.1437 3.08911 13.023 3.31782C12.6892 3.94999 11.9019 4.19318 11.268 3.86008C11.0392 3.73984 10.7561 3.8275 10.6353 4.05616L7.65754 9.69618H6.3992L10.8437 1.2782ZM15.3251 6.31146C15.4546 6.72922 15.6979 7.09175 16.0268 7.36504L14.796 9.69623H8.71769L11.2689 4.86416C12.1132 5.10074 13.0276 4.81818 13.5898 4.14635L15.3075 5.04913C15.1914 5.4593 15.1959 5.89464 15.3251 6.31146ZM19.8141 22.0699C19.8141 22.6173 19.3688 23.0625 18.8215 23.0625H4.17428C3.62701 23.0625 3.18178 22.6173 3.18178 22.0699V11.6263C3.18178 11.079 3.62701 10.6337 4.17428 10.6337H18.8215C19.3688 10.6337 19.8141 11.079 19.8141 11.6263V14.4764H17.9837C16.676 14.4764 15.612 15.5403 15.612 16.8481C15.612 18.1559 16.6759 19.2199 17.9837 19.2199H19.8141V22.0699ZM20.8182 18.2823H17.9837C17.1929 18.2823 16.5495 17.6389 16.5495 16.8481C16.5495 16.0573 17.1929 15.4139 17.9837 15.4139H20.8182V18.2823Z" fill="#122261"/>
</g>
<defs>
<clipPath id="clip0">
<rect width="24" height="24" fill="white"/>
</clipPath>
</defs>
</svg>
