<svg width="24" height="22" viewBox="0 0 24 22" fill="none" xmlns="http://www.w3.org/2000/svg">
<path d="M23.7448 8.44999L12.3684 0.120445C12.149 -0.0401484 11.851 -0.0401484 11.6317 0.120445L0.255261 8.44999C-0.0226135 8.65348 -0.0829885 9.04366 0.120496 9.32154C0.32398 9.59941 0.714215 9.6597 0.992043 9.4563L12 1.39643L23.008 9.45626C23.119 9.53759 23.248 9.57673 23.3759 9.57673C23.5679 9.57673 23.7574 9.48837 23.8795 9.32149C24.083 9.04366 24.0227 8.65348 23.7448 8.44999Z" fill="#122261"/>
<path d="M20.7302 9.59741C20.3859 9.59741 20.1066 9.8766 20.1066 10.221V20.1467H15.1181V14.7286C15.1181 13.0093 13.7193 11.6105 12 11.6105C10.2807 11.6105 8.88185 13.0093 8.88185 14.7286V20.1468H3.89327V10.221C3.89327 9.87665 3.61404 9.59746 3.2697 9.59746C2.92535 9.59746 2.64612 9.87665 2.64612 10.221V20.7704C2.64612 21.1148 2.92535 21.394 3.2697 21.394H9.50543C9.83337 21.394 10.1017 21.1406 10.1266 20.819C10.1281 20.8044 10.129 20.7884 10.129 20.7704V14.7287C10.129 13.697 10.9683 12.8577 12 12.8577C13.0316 12.8577 13.8709 13.6971 13.8709 14.7287V20.7704C13.8709 20.7883 13.8719 20.804 13.8734 20.8184C13.8979 21.1403 14.1664 21.394 14.4945 21.394H20.7303C21.0746 21.394 21.3538 21.1148 21.3538 20.7704V10.221C21.3538 9.8766 21.0746 9.59741 20.7302 9.59741Z" fill="#122261"/>
</svg>
