<svg width="24" height="24" viewBox="0 0 24 24" fill="none" xmlns="http://www.w3.org/2000/svg">
<g clip-path="url(#clip0)">
<path d="M10.7984 15.6736C10.9814 15.4903 10.9814 15.1935 10.7984 15.0102C10.6152 14.8275 10.3185 14.8275 10.1352 15.0102C9.95232 15.1935 9.95232 15.4903 10.1352 15.6736C10.3185 15.8564 10.6152 15.8564 10.7984 15.6736Z" fill="#122261"/>
<path d="M10.9691 4.64081V5.57831C10.9691 7.13214 12.2278 8.3908 13.7816 8.3908C15.3325 8.3908 16.5943 7.12921 16.5943 5.57831V4.64081C16.8532 4.64081 17.063 4.43097 17.063 4.17206C17.063 3.91315 16.8532 3.70331 16.5943 3.70331H15.6568C15.3979 3.70331 15.188 3.91315 15.188 4.17206C15.188 4.43097 15.3979 4.64081 15.6568 4.64081V5.57831C15.6568 6.61212 14.8156 7.4533 13.7816 7.4533C12.7462 7.4533 11.9066 6.61413 11.9066 5.57831V4.64081C12.1655 4.64081 12.3754 4.43097 12.3754 4.17206C12.3754 3.91315 12.1655 3.70331 11.9066 3.70331H10.9691C10.7102 3.70331 10.5004 3.91315 10.5004 4.17206C10.5004 4.43097 10.7102 4.64081 10.9691 4.64081Z" fill="#122261"/>
<path d="M5.44775 23.0129C5.5393 23.1042 5.65905 23.1498 5.77899 23.1498C5.89892 23.1498 6.01885 23.104 6.11041 23.0127L7.5498 21.5733C8.01873 21.1047 8.2445 20.4629 8.17931 19.8144L8.69549 19.316C9.10509 18.9212 9.64361 18.7037 10.2116 18.7037H16.3833C17.4889 18.7037 18.5339 18.279 19.3257 17.508C19.3374 17.4966 19.3484 17.4847 19.3588 17.4721L23.5581 12.4294C24.2254 11.6398 24.1256 10.4544 23.3353 9.78643C22.5501 9.12469 21.3735 9.2199 20.7043 9.99627L20.2507 10.4654V1.3125C20.2507 1.05359 20.0407 0.84375 19.782 0.84375H7.73455C7.47582 0.84375 7.2658 1.05359 7.2658 1.3125V11.8149C5.4505 12.1959 4.01074 13.3227 3.23529 14.97C2.62372 14.9383 2.02734 15.1631 1.58478 15.6062L0.138062 17.0458C0.0498051 17.1337 0.00018361 17.2531 5.04956e-07 17.3776C-0.0001826 17.5023 0.049439 17.6217 0.137513 17.7098L5.44775 23.0129ZM19.3132 1.78125V11.4347L17.9566 12.8373C17.6074 12.4083 17.0753 12.141 16.5005 12.141H11.0656C11.0356 12.141 11.003 12.134 10.9702 12.1208C10.24 11.8231 9.46673 11.6722 8.67223 11.6722C8.51531 11.6722 8.35894 11.6779 8.20348 11.6882V1.78125H19.3132ZM7.80175 12.6714C8.75005 12.5343 9.69836 12.6149 10.6181 12.9897C10.7642 13.0486 10.9149 13.0787 11.0656 13.0787H16.5005C17.0088 13.0787 17.438 13.4932 17.438 14.0162C17.438 14.5331 17.0174 14.9537 16.5005 14.9537H12.4222C12.1635 14.9537 11.9535 15.1635 11.9535 15.4224C11.9535 15.6813 12.1635 15.8912 12.4222 15.8912H16.5005C17.5345 15.8912 18.3755 15.05 18.3755 14.0162C18.3755 13.9334 18.3695 13.8512 18.3589 13.7701C18.4566 13.6699 21.29 10.7395 21.3882 10.6379C21.3953 10.6304 21.4024 10.6227 21.409 10.6148C21.743 10.2204 22.3361 10.1706 22.7307 10.5031C23.1256 10.8369 23.1756 11.4296 22.8398 11.827L18.6546 16.8528C18.041 17.4421 17.2353 17.7662 16.3833 17.7662H10.2116C9.39953 17.7662 8.63012 18.0767 8.04455 18.6412L7.83782 18.8408C7.75506 18.7135 7.65875 18.5947 7.54998 18.4861L4.67083 15.607C4.51702 15.4532 4.34253 15.3254 4.15374 15.2245C4.86987 13.812 6.14904 12.9117 7.80175 12.6714ZM2.24707 16.2698C2.73962 15.7765 3.52679 15.7886 4.00781 16.27L6.88732 19.1493C7.36999 19.6311 7.37859 20.4192 6.88714 20.9101L5.77862 22.0184L1.13269 17.3787L2.24707 16.2698Z" fill="#122261"/>
</g>
<defs>
<clipPath id="clip0">
<rect width="24" height="24" fill="white"/>
</clipPath>
</defs>
</svg>
