<svg width="24" height="24" viewBox="0 0 24 24" fill="none" xmlns="http://www.w3.org/2000/svg">
<g clip-path="url(#clip0)">
<path d="M9.44286 12C7.78888 12 6.44287 13.346 6.44287 15C6.44287 16.654 7.78888 18 9.44286 18C11.0968 18 12.4429 16.654 12.4429 15C12.4429 13.346 11.0969 12 9.44286 12ZM9.44286 17C8.33985 17 7.44285 16.103 7.44285 15C7.44285 13.897 8.33985 13 9.44286 13C10.5459 13 11.4429 13.897 11.4429 15C11.4429 16.103 10.5459 17 9.44286 17Z" fill="#122261"/>
<path d="M17.8629 16.841L16.2869 15.606C16.3059 15.407 16.3179 15.204 16.3179 15.001C16.3179 14.795 16.3059 14.59 16.2858 14.384L17.8768 13.136C18.2288 12.838 18.3138 12.34 18.0838 11.957L16.3798 9.01195C16.1478 8.62697 15.6758 8.46094 15.2418 8.62294L13.3888 9.36792C13.0558 9.12994 12.7088 8.92791 12.3388 8.75391L12.0578 6.75891C11.9759 6.327 11.5829 6 11.1419 6H7.74189C7.29789 6 6.90391 6.33398 6.82089 6.79402L6.54391 8.76802C6.17093 8.94502 5.81993 9.15 5.49489 9.38002L3.63091 8.63002C3.21091 8.47303 2.73691 8.637 2.5009 9.03L0.805895 11.963C0.571895 12.352 0.656879 12.851 1.02288 13.16L2.59886 14.395C2.57988 14.594 2.56788 14.797 2.56788 15C2.56788 15.2061 2.57988 15.411 2.5999 15.6171L1.00788 16.8641C0.655895 17.1621 0.570864 17.6601 0.800879 18.0431L2.50488 20.9881C2.73686 21.3741 3.20889 21.5391 3.64286 21.3771L5.49588 20.6321C5.82888 20.8701 6.1759 21.0721 6.54588 21.2461L6.82689 23.2411C6.90888 23.6731 7.30188 24.0001 7.74288 24.0001H11.1429C11.5869 24.0001 11.9808 23.6662 12.0639 23.2061L12.3408 21.2321C12.7138 21.0551 13.0648 20.8501 13.3899 20.6201L15.2538 21.3701C15.6748 21.5281 16.1488 21.3631 16.3839 20.9701L18.0798 18.0382C18.3138 17.649 18.2289 17.15 17.8629 16.841ZM15.5519 20.411L13.5029 19.587C13.3379 19.519 13.1499 19.547 13.0089 19.656C12.6179 19.961 12.1728 20.221 11.6868 20.429C11.5269 20.498 11.4129 20.646 11.3889 20.819L11.1429 23H7.80185L7.49786 20.831C7.47288 20.657 7.35888 20.508 7.19585 20.44C6.71683 20.24 6.28586 19.987 5.87683 19.669C5.73682 19.56 5.54782 19.533 5.38282 19.6L3.33382 20.425L1.6968 17.596L3.4368 16.232C3.57579 16.123 3.6468 15.949 3.62482 15.774C3.59083 15.516 3.56782 15.258 3.56782 15C3.56782 14.743 3.59083 14.487 3.62383 14.241C3.64685 14.066 3.57682 13.89 3.43685 13.781L1.69685 12.417L3.33386 9.588L5.38286 10.412C5.54585 10.479 5.73588 10.452 5.87688 10.343C6.26786 10.038 6.71289 9.77803 7.19889 9.57C7.35888 9.501 7.47189 9.354 7.49688 9.18098L7.74189 6.99998H11.0839L11.3879 9.16898C11.4129 9.34298 11.5269 9.492 11.6899 9.55997C12.1689 9.75998 12.5999 10.013 13.0089 10.331C13.1509 10.441 13.3399 10.468 13.5029 10.4L15.5519 9.57398L17.1889 12.403L15.4489 13.767C15.31 13.876 15.2389 14.05 15.2609 14.225C15.2949 14.483 15.3179 14.741 15.3179 14.999C15.3179 15.256 15.2949 15.512 15.2619 15.758C15.2389 15.933 15.3089 16.109 15.4489 16.218L17.1889 17.582L15.5519 20.411Z" fill="#122261"/>
<path d="M18.4429 3C17.3399 3 16.4429 3.897 16.4429 5.00002C16.4429 6.10303 17.3399 7.00003 18.4429 7.00003C19.5459 7.00003 20.4429 6.10303 20.4429 5.00002C20.4429 3.897 19.5459 3 18.4429 3ZM18.4429 6C17.8919 6 17.4429 5.55098 17.4429 5.00002C17.4429 4.449 17.8919 4.00003 18.4429 4.00003C18.9939 4.00003 19.4429 4.44905 19.4429 5.00002C19.4429 5.55098 18.9939 6 18.4429 6Z" fill="#122261"/>
<path d="M23.0769 5.814C23.0689 5.80702 23.0599 5.79998 23.0519 5.793L22.3089 5.217C22.3149 5.14598 22.3179 5.07398 22.3179 5.00002C22.3179 4.92502 22.3159 4.85203 22.3119 4.77802L23.0689 4.18402C23.3269 3.954 23.3929 3.58402 23.2229 3.273L22.3289 1.72702C22.1618 1.42003 21.7928 1.28002 21.4238 1.404L20.5619 1.75102C20.4368 1.668 20.3119 1.59502 20.1848 1.53202L20.0568 0.648C20.0279 0.285 19.7139 0 19.3429 0H17.5429C17.1909 0 16.8829 0.261 16.8219 0.618984L16.6899 1.53998C16.5579 1.60697 16.4329 1.67798 16.3159 1.75397L15.4359 1.39997C15.1099 1.28198 14.7529 1.40395 14.5529 1.71797L13.6479 3.285C13.4749 3.60098 13.5479 3.978 13.8319 4.206L14.5729 4.78598C14.5699 4.85597 14.5679 4.92698 14.5679 4.99997C14.5679 5.07295 14.5699 5.14397 14.5729 5.21498L13.8089 5.814C13.5499 6.04402 13.4839 6.41498 13.6538 6.72698L14.5478 8.27297C14.7158 8.57995 15.0858 8.72095 15.4529 8.59598L16.3148 8.24897C16.4399 8.33198 16.5648 8.40497 16.6919 8.46797L16.8248 9.39398C16.8839 9.74498 17.1858 9.99998 17.5428 9.99998H19.3428C19.6938 9.99998 20.0028 9.73898 20.0638 9.38198L20.1958 8.46C20.3278 8.394 20.4508 8.32298 20.5648 8.24798L21.4488 8.60198C21.7728 8.71898 22.1328 8.59697 22.3328 8.28399L23.2388 6.71498C23.4019 6.414 23.3359 6.04298 23.0769 5.814ZM21.5839 7.57898L20.6799 7.218C20.5129 7.152 20.3239 7.179 20.1819 7.29202C20.0109 7.42903 19.7949 7.554 19.5389 7.665C19.3799 7.734 19.2679 7.88002 19.2429 8.052L19.1069 9H17.7779L17.6429 8.05102C17.6169 7.872 17.4959 7.72102 17.3279 7.656C17.1139 7.57402 16.9039 7.452 16.6869 7.28498C16.5459 7.17698 16.3599 7.152 16.1949 7.218L15.3019 7.57898L14.6389 6.43298L15.4029 5.835C15.5419 5.72602 15.6129 5.553 15.5909 5.379C15.5749 5.25502 15.5679 5.13098 15.5679 5.00002C15.5679 4.86905 15.5749 4.74502 15.5899 4.62103C15.6119 4.44605 15.5409 4.27303 15.4019 4.16503L14.6378 3.56705L15.2999 2.42105L16.1939 2.78105C16.3579 2.84803 16.5449 2.82103 16.6859 2.71406C16.8698 2.57306 17.0918 2.44505 17.3459 2.33508C17.5049 2.26608 17.6168 2.12006 17.6419 1.94808L17.7779 1.00008H19.0979L19.2349 1.95009C19.2599 2.12911 19.3809 2.28009 19.5489 2.34511C19.7629 2.42709 19.9729 2.54911 20.1899 2.71613C20.3299 2.82413 20.5159 2.85014 20.6819 2.78311L21.5749 2.42213L22.2379 3.56813L21.4739 4.16611C21.3269 4.28011 21.2559 4.46709 21.2899 4.65112C21.3119 4.76512 21.3179 4.87913 21.3179 5.00011C21.3179 5.13112 21.3009 5.25511 21.2849 5.37811C21.2629 5.55309 21.3349 5.72709 21.4739 5.83509L22.2449 6.43308L21.5839 7.57898Z" fill="#122261"/>
</g>
<defs>
<clipPath id="clip0">
<rect width="24" height="24" fill="white"/>
</clipPath>
</defs>
</svg>
