<svg width="24" height="24" viewBox="0 0 24 24" fill="none" xmlns="http://www.w3.org/2000/svg">
<path d="M12 11.9994C12.2587 11.9994 12.4687 11.7894 12.4687 11.5307C12.4687 11.2719 12.2587 11.0619 12 11.0619C11.7413 11.0619 11.5312 11.2719 11.5312 11.5307C11.5312 11.7894 11.7413 11.9994 12 11.9994Z" fill="#122261"/>
<path d="M22.125 8.24947H19.3529L15.0888 2.38297C14.7057 1.72654 13.862 1.4929 13.1918 1.86405C12.5125 2.24143 12.2682 3.09708 12.6458 3.77658C12.6566 3.79581 12.6685 3.8143 12.6819 3.83188L16.0265 8.24947H7.9735L11.3181 3.83188C11.3313 3.8143 11.3434 3.79581 11.3542 3.77658C11.7308 3.09873 11.4893 2.24234 10.8076 1.86368C10.1389 1.49326 9.29515 1.72672 8.91136 2.3826L4.64702 8.24947H1.875C0.841185 8.24947 0 9.09066 0 10.1245C0 10.9398 0.529174 11.6497 1.27459 11.901C1.35406 11.9625 1.45331 11.9995 1.56134 11.9995C1.58294 11.9995 1.60327 12.0007 1.62451 12.0037C1.82629 12.0308 1.98614 12.1839 2.02276 12.3842L3.61742 21.1575C3.73919 21.8264 4.3211 22.3119 5.00115 22.3119H18.9988C19.6789 22.3119 20.2608 21.8264 20.3825 21.1573L21.9772 12.3844C22.0138 12.1839 22.1738 12.0308 22.3764 12.0037C22.3969 12.0007 22.4172 11.9995 22.4386 11.9995C22.5474 11.9995 22.6474 11.9621 22.7268 11.8999C23.4728 11.647 24 10.9384 24 10.1245C24 9.09066 23.1588 8.24947 22.125 8.24947ZM13.4525 3.29666C13.3454 3.07492 13.4286 2.80484 13.6465 2.68399C13.8733 2.5582 14.1593 2.63932 14.2844 2.86472C14.2936 2.88156 14.304 2.89768 14.3152 2.91306L18.1939 8.24947H17.2022L13.4525 3.29666ZM9.6848 2.91324C9.69597 2.89786 9.70604 2.88193 9.71537 2.86545C9.8408 2.63987 10.127 2.55857 10.3529 2.68363C10.5712 2.80484 10.6547 3.07456 10.5474 3.29666L6.79778 8.24947H5.80608L9.6848 2.91324ZM22.125 11.062H13.875C13.6161 11.062 13.4062 11.2718 13.4062 11.5307C13.4062 11.7896 13.6161 11.9947 13.875 11.9947H21.1124C21.0879 12.0647 21.0684 12.1372 21.0549 12.2119L19.46 20.9896C19.4196 21.2126 19.2255 21.3744 18.9988 21.3744H5.00115C4.77428 21.3744 4.58037 21.2126 4.53973 20.9897L2.94506 12.2164C2.93151 12.1417 2.9121 12.0692 2.88757 11.9995H10.125C10.3839 11.9995 10.5937 11.7896 10.5937 11.5307C10.5937 11.2718 10.3839 11.062 10.125 11.062H1.875C1.3537 11.062 0.937498 10.6372 0.937498 10.1245C0.937498 9.60756 1.35809 9.18697 1.875 9.18697H22.125C22.6419 9.18697 23.0625 9.60756 23.0625 10.1245C23.0625 10.645 22.6366 11.062 22.125 11.062Z" fill="#122261"/>
<path d="M12 13.4056C11.2245 13.4056 10.5938 14.0364 10.5938 14.8119V18.5619C10.5938 19.3373 11.2245 19.9681 12 19.9681C12.7754 19.9681 13.4062 19.3373 13.4062 18.5619V14.8119C13.4062 14.035 12.7769 13.4056 12 13.4056ZM12.4687 18.5619C12.4687 18.8204 12.2585 19.0306 12 19.0306C11.7415 19.0306 11.5312 18.8204 11.5312 18.5619V14.8119C11.5312 14.5533 11.7415 14.3431 12 14.3431C12.2587 14.3431 12.4687 14.5532 12.4687 14.8119V18.5619Z" fill="#122261"/>
<path d="M16.6875 19.9681C17.4629 19.9681 18.0937 19.3373 18.0937 18.5619V14.8119C18.0937 14.035 17.4644 13.4056 16.6875 13.4056C15.912 13.4056 15.2812 14.0364 15.2812 14.8119V18.5619C15.2812 19.3373 15.912 19.9681 16.6875 19.9681ZM16.2187 14.8119C16.2187 14.5533 16.429 14.3431 16.6875 14.3431C16.9462 14.3431 17.1562 14.5532 17.1562 14.8119V18.5619C17.1562 18.8204 16.946 19.0306 16.6875 19.0306C16.429 19.0306 16.2187 18.8204 16.2187 18.5619V14.8119Z" fill="#122261"/>
<path d="M7.3125 13.4056C6.53705 13.4056 5.90625 14.0364 5.90625 14.8119V18.5619C5.90625 19.3373 6.53705 19.9681 7.3125 19.9681C8.08795 19.9681 8.71874 19.3373 8.71874 18.5619V14.8119C8.71874 14.035 8.08941 13.4056 7.3125 13.4056ZM7.78125 18.5619C7.78125 18.8204 7.57104 19.0306 7.3125 19.0306C7.05395 19.0306 6.84375 18.8204 6.84375 18.5619V14.8119C6.84375 14.5533 7.05395 14.3431 7.3125 14.3431C7.57122 14.3431 7.78125 14.553 7.78125 14.8119V18.5619Z" fill="#122261"/>
</svg>
