<svg width="24" height="24" viewBox="0 0 24 24" fill="none" xmlns="http://www.w3.org/2000/svg">
<g clip-path="url(#clip0)">
<path d="M22.2975 5.29206L12.1725 0.0420727C12.0643 -0.0139428 11.9357 -0.0139428 11.8275 0.0420727L1.7025 5.29206C1.57809 5.35652 1.5 5.48495 1.5 5.62506V23.625C1.5 23.8321 1.66791 24 1.875 24H22.125C22.3321 24 22.5 23.8321 22.5 23.625V5.62506C22.5 5.48495 22.4219 5.35652 22.2975 5.29206ZM14.625 22.875H11.25V19.5H11.625V20.625C11.625 20.8321 11.7929 21 12 21H13.875C14.0821 21 14.25 20.8321 14.25 20.625V19.5H14.625V22.875ZM12.375 20.25V19.5H13.5V20.25H12.375ZM18.75 22.875H15.375V19.5H15.75V20.625C15.75 20.8321 15.9179 21 16.125 21H18C18.2071 21 18.375 20.8321 18.375 20.625V19.5H18.75V22.875ZM16.5 20.25V19.5H17.625V20.25H16.5ZM18.75 18.75H15.375V15.375H15.75V16.5C15.75 16.7071 15.9179 16.875 16.125 16.875H18C18.2071 16.875 18.375 16.7071 18.375 16.5V15.375H18.75V18.75ZM16.5 16.125V15.375H17.625V16.125H16.5ZM19.125 14.625H15C14.7929 14.625 14.625 14.793 14.625 15V18.75H10.875C10.6679 18.75 10.5 18.9179 10.5 19.125V23.25H4.87499V10.8751H19.125V14.625ZM19.5 10.1251H4.49999V9.37506H19.5V10.1251ZM21.75 23.25H19.875V10.8751C20.0821 10.8751 20.25 10.7071 20.25 10.5001V9.00006C20.25 8.79296 20.0821 8.62506 19.875 8.62506H4.12499C3.9179 8.62506 3.75 8.79296 3.75 9.00006V10.5001C3.75 10.7071 3.9179 10.8751 4.12499 10.8751V23.25H2.25V5.85306L12 0.797321L21.75 5.85306V23.25Z" fill="#122261"/>
<path d="M14.625 3.75006H9.375C9.16791 3.75006 9 3.91797 9 4.12506C9 4.33215 9.16791 4.50006 9.375 4.50006H14.625C14.8321 4.50006 15 4.33215 15 4.12506C15 3.91797 14.8321 3.75006 14.625 3.75006Z" fill="#122261"/>
<path d="M14.625 5.25006H9.375C9.16791 5.25006 9 5.41797 9 5.62506C9 5.83216 9.16791 6.00006 9.375 6.00006H14.625C14.8321 6.00006 15 5.83216 15 5.62506C15 5.41797 14.8321 5.25006 14.625 5.25006Z" fill="#122261"/>
<path d="M14.625 6.75006H9.375C9.16791 6.75006 9 6.91797 9 7.12506C9 7.33215 9.16791 7.50006 9.375 7.50006H14.625C14.8321 7.50006 15 7.33215 15 7.12506C15 6.91797 14.8321 6.75006 14.625 6.75006Z" fill="#122261"/>
</g>
<defs>
<clipPath id="clip0">
<rect width="24" height="24" fill="white"/>
</clipPath>
</defs>
</svg>
