<svg width="24" height="24" viewBox="0 0 24 24" fill="none" xmlns="http://www.w3.org/2000/svg">
<g clip-path="url(#clip0)">
<path d="M20.8667 19.375C22.1036 16.5221 21.5516 13.34 19.4263 11.0703L15.1207 6.4724C15.3504 6.28007 15.5003 5.99876 15.5143 5.68022C15.5278 5.37488 15.4191 5.08542 15.2082 4.86509C15.1114 4.76379 14.9989 4.68371 14.8762 4.62644C14.9552 4.47419 15.0001 4.30153 15.0001 4.11847C15.0001 3.7271 14.7958 3.38276 14.4884 3.18579L16.011 1.30887C16.208 1.06605 16.2468 0.739923 16.1124 0.457628C15.9779 0.175334 15.7001 0 15.3874 0H13.0927C12.9248 0 12.7629 0.0500619 12.6242 0.144847L12.1205 0.489192C12.0472 0.539347 11.9524 0.539347 11.8791 0.489239L11.3754 0.144847C11.2368 0.0500619 11.0748 0 10.907 0H8.61221C8.29957 0 8.02182 0.175334 7.88732 0.457581C7.75283 0.739829 7.7917 1.066 7.98866 1.30882L9.51127 3.18574C9.20392 3.38271 8.9996 3.72706 8.9996 4.11842C8.9996 4.30345 9.04544 4.47784 9.12599 4.63131C8.76067 4.8021 8.50394 5.15881 8.48535 5.5808C8.47186 5.88613 8.5806 6.17554 8.79143 6.39588C8.82646 6.4325 8.86369 6.46613 8.90256 6.49718L6.4552 9.11074C6.32262 9.25231 6.32993 9.47462 6.4715 9.60719C6.53926 9.6706 6.62547 9.70202 6.7115 9.70202C6.80526 9.70202 6.89882 9.6647 6.96795 9.59085L9.63968 6.7377H11.8339C12.0134 6.7377 12.1665 6.60011 12.1856 6.42164C12.2063 6.22879 12.0667 6.05571 11.8738 6.03501C11.8475 6.03215 11.8215 6.03234 11.7961 6.03524H9.59149C9.47998 6.03524 9.37611 5.99084 9.29898 5.91025C9.2219 5.8297 9.18219 5.72372 9.18715 5.6117C9.19652 5.39886 9.38857 5.22568 9.61523 5.22568H10.1069H13.8929H14.4083C14.5198 5.22568 14.6237 5.27008 14.7008 5.35067C14.7779 5.43127 14.8176 5.53724 14.8126 5.64926C14.8033 5.86211 14.6112 6.03529 14.3845 6.03529H13.3865C13.3857 6.03519 13.385 6.0351 13.3842 6.03501C13.1921 6.01178 13.0166 6.14885 12.9933 6.34142C12.9811 6.44121 13.013 6.54335 13.0797 6.61861C13.1463 6.69382 13.2439 6.73774 13.3444 6.73774H14.3845C14.3919 6.73774 14.3992 6.73737 14.4065 6.73723L18.9136 11.5504C20.8446 13.6125 21.346 16.5036 20.2223 19.0955C19.0985 21.6874 16.6454 23.2975 13.8204 23.2975H10.2262C9.82386 23.2975 9.4229 23.2653 9.03444 23.2015C8.84337 23.1701 8.66242 23.2999 8.63099 23.4913C8.59962 23.6828 8.72934 23.8634 8.92078 23.8948C9.34666 23.9646 9.78588 24 10.2262 24H13.8204C16.9298 24 19.6298 22.2278 20.8667 19.375ZM8.52146 0.759732C8.53391 0.7336 8.55972 0.702458 8.61221 0.702458H10.907C10.9328 0.702458 10.9577 0.710185 10.979 0.72475L11.4827 1.06914C11.7968 1.28391 12.2028 1.28391 12.5169 1.06914L13.0207 0.72475C13.042 0.710185 13.0669 0.702458 13.0927 0.702458H15.3874C15.4399 0.702458 15.4657 0.7336 15.4782 0.759732C15.4906 0.78591 15.4986 0.825576 15.4655 0.866318L13.7255 3.0112H10.2741L8.53419 0.866318C8.50108 0.825576 8.509 0.785863 8.52146 0.759732ZM10.1068 4.52322C9.88357 4.52322 9.70196 4.34161 9.70196 4.11842C9.70196 3.89522 9.88352 3.71362 10.1068 3.71362H13.8928C14.116 3.71362 14.2976 3.89522 14.2976 4.11842C14.2976 4.34161 14.116 4.52322 13.8928 4.52322H10.1068Z" fill="#122261"/>
<path d="M2.88622 16.8565C2.89001 16.8565 2.89385 16.8564 2.89769 16.8563C3.09157 16.8501 3.24373 16.6878 3.2375 16.494C3.1783 14.6473 3.8337 12.9379 5.13292 11.5505L5.68697 10.9588C5.81955 10.8172 5.81224 10.5949 5.67067 10.4623C5.5291 10.3298 5.3068 10.337 5.17422 10.4786L4.62012 11.0703C3.21137 12.5748 2.47098 14.5089 2.53537 16.5165C2.54145 16.7066 2.6974 16.8565 2.88622 16.8565Z" fill="#122261"/>
<path d="M7.08913 17.5589H0.901505C0.414092 17.5589 0.0175781 17.9554 0.0175781 18.4428V19.2903C0.0175781 19.4905 0.0852482 19.6747 0.197782 19.823C0.0852014 19.9713 0.0175781 20.1556 0.0175781 20.3557V21.2032C0.0175781 21.4034 0.0852482 21.5876 0.197782 21.7359C0.0852014 21.8842 0.0175781 22.0685 0.0175781 22.2686V23.1162C0.0175781 23.6036 0.414092 24.0001 0.901505 24.0001H7.08913C7.5765 24.0001 7.97306 23.6036 7.97306 23.1162V22.2686C7.97306 22.0685 7.90539 21.8843 7.79285 21.7359C7.90543 21.5876 7.97306 21.4034 7.97306 21.2032V20.3557C7.97306 20.1556 7.90543 19.9713 7.79285 19.823C7.90543 19.6747 7.97306 19.4905 7.97306 19.2903V18.4428C7.97301 17.9554 7.5765 17.5589 7.08913 17.5589ZM0.720036 18.4428C0.720036 18.3428 0.801428 18.2614 0.901505 18.2614H7.08913C7.18916 18.2614 7.2706 18.3428 7.2706 18.4428V19.2903C7.2706 19.3904 7.18921 19.4718 7.08913 19.4718H0.901505C0.801428 19.4718 0.720036 19.3904 0.720036 19.2903V18.4428ZM7.27055 20.3557V21.2032C7.27055 21.3033 7.18916 21.3847 7.08908 21.3847H0.901505C0.801428 21.3847 0.720036 21.3033 0.720036 21.2032V20.3557C0.720036 20.2556 0.801428 20.1743 0.901505 20.1743H7.08913C7.18916 20.1743 7.27055 20.2556 7.27055 20.3557ZM7.27055 23.1161C7.27055 23.2161 7.18916 23.2975 7.08908 23.2975H0.901505C0.801428 23.2975 0.720036 23.2161 0.720036 23.1161V22.2685C0.720036 22.1685 0.801428 22.0871 0.901505 22.0871H7.08913C7.18916 22.0871 7.2706 22.1685 7.2706 22.2685V23.1161H7.27055Z" fill="#122261"/>
<path d="M23.9823 18.4428C23.9823 17.9554 23.5858 17.5589 23.0984 17.5589H22.4143C22.2203 17.5589 22.0631 17.7161 22.0631 17.9101C22.0631 18.1041 22.2203 18.2614 22.4143 18.2614H23.0984C23.1985 18.2614 23.2798 18.3428 23.2798 18.4428V19.2903C23.2798 19.3904 23.1985 19.4717 23.0984 19.4717H21.8203C21.6263 19.4717 21.4691 19.629 21.4691 19.823C21.4691 20.017 21.6263 20.1742 21.8203 20.1742H23.0984C23.1985 20.1742 23.2798 20.2556 23.2798 20.3557V21.2032C23.2798 21.3033 23.1985 21.3847 23.0984 21.3847H20.6803C20.4863 21.3847 20.3291 21.5419 20.3291 21.7359C20.3291 21.9299 20.4863 22.0871 20.6803 22.0871H23.0984C23.1985 22.0871 23.2798 22.1685 23.2798 22.2686V23.1161C23.2798 23.2161 23.1985 23.2975 23.0984 23.2975H18.6079C18.4139 23.2975 18.2567 23.4547 18.2567 23.6488C18.2567 23.8428 18.4139 24 18.6079 24H23.0984C23.5858 24 23.9823 23.6035 23.9823 23.1161V22.2686C23.9823 22.0684 23.9147 21.8842 23.8021 21.7359C23.9147 21.5876 23.9823 21.4033 23.9823 21.2032V20.3556C23.9823 20.1555 23.9147 19.9713 23.8021 19.8229C23.9147 19.6746 23.9823 19.4904 23.9823 19.2902V18.4428Z" fill="#122261"/>
<path d="M11.9707 17.1713C12.1647 17.1713 12.3219 17.0141 12.3219 16.8201V16.4621C13.0525 16.3094 13.4796 15.7028 13.5749 15.1358C13.6988 14.3988 13.3134 13.7581 12.5932 13.5035C12.504 13.472 12.4129 13.439 12.3219 13.4048V11.9132C12.5388 11.9721 12.6678 12.0807 12.68 12.0915C12.8228 12.2205 13.0431 12.2108 13.1738 12.0691C13.3053 11.9265 13.2963 11.7043 13.1537 11.5728C13.1352 11.5556 12.8268 11.2781 12.3219 11.1957V10.9022C12.3219 10.7082 12.1647 10.551 11.9706 10.551C11.7767 10.551 11.6194 10.7082 11.6194 10.9022V11.2219C11.5768 11.2317 11.5337 11.2427 11.4897 11.2559C11.0143 11.3992 10.6591 11.8057 10.5628 12.3169C10.4748 12.7839 10.6249 13.2347 10.9546 13.4933C11.1241 13.6262 11.3339 13.7479 11.6194 13.876V15.7873C11.3758 15.7663 11.2154 15.7022 10.9463 15.5262C10.7839 15.42 10.5663 15.4655 10.4601 15.6279C10.3539 15.7902 10.3994 16.0078 10.5617 16.1141C10.9745 16.384 11.259 16.4682 11.6193 16.4912V16.8201C11.6195 17.0141 11.7767 17.1713 11.9707 17.1713ZM11.3882 12.9405C11.2675 12.8459 11.2145 12.6522 11.2532 12.447C11.2869 12.2681 11.4008 12.0551 11.6195 11.9563V13.0916C11.5331 13.043 11.4547 12.9927 11.3882 12.9405ZM12.359 14.1658C12.9429 14.3721 12.907 14.8713 12.8821 15.0194C12.8349 15.3003 12.6446 15.5981 12.3219 15.7285V14.1525C12.3345 14.1569 12.3464 14.1613 12.359 14.1658Z" fill="#122261"/>
<path d="M16.0763 15.6036C16.2597 15.667 16.4596 15.5694 16.5227 15.386C16.6943 14.8879 16.7813 14.3664 16.7813 13.836C16.7813 11.2124 14.6469 9.07788 12.0232 9.07788C9.39958 9.07788 7.26514 11.2123 7.26514 13.836C7.26514 16.4596 9.39958 18.594 12.0232 18.594C13.475 18.594 14.829 17.9433 15.738 16.8089C15.8593 16.6575 15.8349 16.4365 15.6835 16.3151C15.5321 16.1938 15.3111 16.2183 15.1898 16.3696C14.4148 17.3368 13.2607 17.8916 12.0232 17.8916C9.78696 17.8916 7.9676 16.0722 7.9676 13.836C7.9676 11.5997 9.78692 9.78034 12.0232 9.78034C14.2595 9.78034 16.0788 11.5997 16.0788 13.836C16.0788 14.2884 16.0048 14.7329 15.8586 15.1572C15.7954 15.3406 15.8929 15.5405 16.0763 15.6036Z" fill="#122261"/>
</g>
<defs>
<clipPath id="clip0">
<rect width="24" height="24" fill="white"/>
</clipPath>
</defs>
</svg>
