<svg width="37" height="37" viewBox="0 0 37 37" fill="none" xmlns="http://www.w3.org/2000/svg">
<g clip-path="url(#clip0)">
<path d="M32.8174 22.3178H31.992V17.9239C31.992 16.2832 30.6572 14.9484 29.0165 14.9484H28.0192L30.9277 9.43943C31.2306 8.86578 31.2917 8.20858 31.0996 7.58896C30.9073 6.96862 30.4845 6.46037 29.9089 6.15778L18.7244 0.279216C17.5383 -0.344305 16.0646 0.111773 15.4393 1.29572L8.2311 14.9484H6.43541C4.79473 14.9484 3.45996 16.2832 3.45996 17.9239V34.0245C3.45996 35.6652 4.79473 37 6.43541 37H29.0165C30.6572 37 31.9921 35.6652 31.9921 34.0245V29.6306H32.8175C33.2166 29.6306 33.5402 29.307 33.5402 28.9079V23.0405C33.5401 22.6413 33.2166 22.3178 32.8174 22.3178ZM16.7174 1.97055C16.9712 1.48998 17.5698 1.30519 18.052 1.55856L29.2366 7.43713C29.4699 7.55976 29.6414 7.76565 29.7192 8.01678C29.7968 8.26711 29.7721 8.5327 29.6497 8.7646L26.3849 14.9484H24.445L26.289 11.4558C26.3786 11.2861 26.397 11.0878 26.3401 10.9044C26.2833 10.7212 26.1559 10.568 25.9861 10.4787C25.5127 10.2299 25.1649 9.81204 25.0069 9.30227C24.8493 8.79373 24.8994 8.25425 25.1481 7.78321C25.2377 7.61346 25.2561 7.41516 25.1993 7.23182C25.1425 7.04855 25.015 6.89541 24.8452 6.80609L21.0524 4.81268C20.6997 4.62731 20.2633 4.76238 20.0771 5.11497C19.5626 6.08956 18.3488 6.46448 17.3715 5.95095C17.0188 5.76559 16.5824 5.90073 16.3962 6.25325L11.8054 14.9483H9.86549L16.7174 1.97055ZM23.6263 9.73016C23.8259 10.3742 24.201 10.9331 24.7081 11.3544L22.8106 14.9484H13.4398L17.373 7.49892C18.6746 7.86365 20.0843 7.42802 20.951 6.39229L23.5991 7.78408C23.4201 8.41642 23.4271 9.08756 23.6263 9.73016ZM30.5467 34.0245C30.5467 34.8683 29.8603 35.5547 29.0165 35.5547H6.43541C5.59169 35.5547 4.9053 34.8683 4.9053 34.0245V17.9239C4.9053 17.0801 5.59169 16.3937 6.43541 16.3937H29.0165C29.8603 16.3937 30.5467 17.0801 30.5467 17.9239V22.3178H27.725C25.7089 22.3178 24.0686 23.958 24.0686 25.9742C24.0686 27.9904 25.7088 29.6306 27.725 29.6306H30.5467V34.0245ZM32.0948 28.1852H27.7249C26.5057 28.1852 25.5138 27.1933 25.5138 25.9741C25.5138 24.755 26.5057 23.7631 27.7249 23.7631H32.0948V28.1852Z" fill="#122261"/>
</g>
<defs>
<clipPath id="clip0">
<rect width="37" height="37" fill="white"/>
</clipPath>
</defs>
</svg>
