<svg width="36" height="36" viewBox="0 0 36 36" fill="none" xmlns="http://www.w3.org/2000/svg">
<g clip-path="url(#clip0)">
<path d="M31.3 29.0625C33.1554 24.7832 32.3274 20.01 29.1394 16.6055L22.6811 9.7086C23.0256 9.4201 23.2504 8.99814 23.2715 8.52033C23.2917 8.06232 23.1286 7.62813 22.8124 7.29763C22.667 7.14569 22.4983 7.02557 22.3143 6.93965C22.4328 6.71129 22.5001 6.45229 22.5001 6.1777C22.5001 5.59065 22.1936 5.07414 21.7326 4.77868L24.0165 1.9633C24.312 1.59908 24.3702 1.10988 24.1685 0.686442C23.9668 0.263 23.5502 0 23.0811 0H19.639C19.3873 0 19.1443 0.0750928 18.9363 0.21727L18.1807 0.733788C18.0708 0.809021 17.9287 0.809021 17.8187 0.733858L17.063 0.21727C16.8552 0.0750928 16.6122 0 16.3604 0H12.9183C12.4494 0 12.0327 0.263 11.831 0.686372C11.6292 1.10974 11.6875 1.59901 11.983 1.96323L14.2669 4.77861C13.8059 5.07407 13.4994 5.59058 13.4994 6.17763C13.4994 6.45517 13.5682 6.71676 13.689 6.94696C13.141 7.20315 12.7559 7.73821 12.728 8.37119C12.7078 8.8292 12.8709 9.26332 13.1872 9.59382C13.2397 9.64875 13.2955 9.69919 13.3538 9.74576L9.6828 13.6661C9.48393 13.8785 9.49489 14.2119 9.70724 14.4108C9.80889 14.5059 9.93821 14.553 10.0673 14.553C10.2079 14.553 10.3482 14.4971 10.4519 14.3863L14.4595 10.1065H17.7508C18.0201 10.1065 18.2498 9.90016 18.2784 9.63246C18.3094 9.34319 18.1001 9.08356 17.8107 9.05251C17.7713 9.04822 17.7323 9.0485 17.6942 9.05286H14.3872C14.22 9.05286 14.0642 8.98627 13.9485 8.86537C13.8328 8.74455 13.7733 8.58558 13.7807 8.41756C13.7948 8.09829 14.0829 7.83852 14.4228 7.83852H15.1603H20.8394H21.6124C21.7797 7.83852 21.9355 7.90511 22.0512 8.02601C22.1668 8.1469 22.2264 8.30587 22.2189 8.47389C22.2049 8.79316 21.9168 9.05293 21.5768 9.05293H20.0797C20.0785 9.05279 20.0775 9.05265 20.0763 9.05251C19.7881 9.01767 19.5249 9.22328 19.4899 9.51213C19.4717 9.66182 19.5195 9.81503 19.6196 9.92791C19.7195 10.0407 19.8659 10.1066 20.0167 10.1066H21.5768C21.5878 10.1066 21.5987 10.1061 21.6097 10.1058L28.3704 17.3256C31.2669 20.4188 32.0191 24.7555 30.3334 28.6433C28.6478 32.5311 24.9681 34.9463 20.7306 34.9463H15.3393C14.7358 34.9463 14.1343 34.8979 13.5517 34.8023C13.2651 34.7552 12.9936 34.9499 12.9465 35.237C12.8994 35.5242 13.094 35.7951 13.3812 35.8422C14.02 35.9469 14.6788 36 15.3393 36H20.7306C25.3947 35.9999 29.4446 33.3417 31.3 29.0625ZM12.7822 1.1396C12.8009 1.1004 12.8396 1.05369 12.9183 1.05369H16.3604C16.3991 1.05369 16.4365 1.06528 16.4685 1.08712L17.224 1.60371C17.6952 1.92586 18.3042 1.92586 18.7753 1.60371L19.531 1.08712C19.5629 1.06528 19.6003 1.05369 19.639 1.05369H23.0811C23.1598 1.05369 23.1986 1.1004 23.2173 1.1396C23.236 1.17887 23.2478 1.23836 23.1982 1.29948L20.5883 4.51681H15.4112L12.8013 1.29948C12.7516 1.23836 12.7635 1.17879 12.7822 1.1396ZM15.1601 6.78483C14.8254 6.78483 14.5529 6.51242 14.5529 6.17763C14.5529 5.84284 14.8253 5.57042 15.1601 5.57042H20.8392C21.174 5.57042 21.4464 5.84284 21.4464 6.17763C21.4464 6.51242 21.174 6.78483 20.8392 6.78483H15.1601Z" fill="#122261"/>
<path d="M4.32945 25.2847C4.33514 25.2847 4.3409 25.2847 4.34666 25.2845C4.63748 25.2751 4.86571 25.0318 4.85637 24.741C4.76758 21.971 5.75067 19.4068 7.6995 17.3257L8.53058 16.4383C8.72944 16.2259 8.71848 15.8924 8.50613 15.6935C8.29378 15.4947 7.96032 15.5056 7.76145 15.718L6.93031 16.6055C4.81717 18.8622 3.70658 21.7635 3.80317 24.7748C3.8123 25.0599 4.04622 25.2847 4.32945 25.2847Z" fill="#122261"/>
<path d="M10.6337 26.3384H1.35226C0.621139 26.3384 0.0263672 26.9332 0.0263672 27.6642V28.9355C0.0263672 29.2357 0.127872 29.5121 0.296673 29.7346C0.127802 29.957 0.0263672 30.2334 0.0263672 30.5335V31.8049C0.0263672 32.1051 0.127872 32.3814 0.296673 32.6039C0.127802 32.8264 0.0263672 33.1027 0.0263672 33.403V34.6743C0.0263672 35.4054 0.621139 36.0002 1.35226 36.0002H10.6337C11.3647 36.0002 11.9596 35.4054 11.9596 34.6743V33.403C11.9596 33.1027 11.8581 32.8264 11.6893 32.6039C11.8582 32.3814 11.9596 32.1051 11.9596 31.8049V30.5335C11.9596 30.2334 11.8582 29.957 11.6893 29.7346C11.8582 29.5121 11.9596 29.2357 11.9596 28.9355V27.6642C11.9595 26.9332 11.3647 26.3384 10.6337 26.3384ZM1.08005 27.6642C1.08005 27.5142 1.20214 27.3921 1.35226 27.3921H10.6337C10.7837 27.3921 10.9059 27.5142 10.9059 27.6642V28.9355C10.9059 29.0856 10.7838 29.2077 10.6337 29.2077H1.35226C1.20214 29.2077 1.08005 29.0856 1.08005 28.9355V27.6642ZM10.9058 30.5335V31.8049C10.9058 31.955 10.7837 32.0771 10.6336 32.0771H1.35226C1.20214 32.0771 1.08005 31.955 1.08005 31.8049V30.5335C1.08005 30.3835 1.20214 30.2614 1.35226 30.2614H10.6337C10.7837 30.2614 10.9058 30.3835 10.9058 30.5335ZM10.9058 34.6741C10.9058 34.8242 10.7837 34.9463 10.6336 34.9463H1.35226C1.20214 34.9463 1.08005 34.8242 1.08005 34.6741V33.4028C1.08005 33.2528 1.20214 33.1307 1.35226 33.1307H10.6337C10.7837 33.1307 10.9059 33.2528 10.9059 33.4028V34.6741H10.9058Z" fill="#122261"/>
<path d="M35.9734 27.6642C35.9734 26.9332 35.3786 26.3384 34.6476 26.3384H33.6214C33.3303 26.3384 33.0945 26.5742 33.0945 26.8652C33.0945 27.1563 33.3303 27.3921 33.6214 27.3921H34.6476C34.7976 27.3921 34.9197 27.5142 34.9197 27.6642V28.9355C34.9197 29.0856 34.7976 29.2076 34.6476 29.2076H32.7304C32.4393 29.2076 32.2035 29.4435 32.2035 29.7345C32.2035 30.0255 32.4393 30.2613 32.7304 30.2613H34.6476C34.7976 30.2613 34.9197 30.3834 34.9197 30.5335V31.8049C34.9197 31.955 34.7976 32.0771 34.6476 32.0771H31.0204C30.7294 32.0771 30.4936 32.3129 30.4936 32.6039C30.4936 32.8949 30.7294 33.1307 31.0204 33.1307H34.6476C34.7976 33.1307 34.9197 33.2528 34.9197 33.4029V34.6742C34.9197 34.8242 34.7976 34.9463 34.6476 34.9463H27.9119C27.6208 34.9463 27.385 35.1821 27.385 35.4732C27.385 35.7642 27.6208 36 27.9119 36H34.6476C35.3786 36 35.9734 35.4052 35.9734 34.6742V33.4029C35.9734 33.1026 35.872 32.8264 35.7031 32.6038C35.872 32.3814 35.9734 32.105 35.9734 31.8048V30.5335C35.9734 30.2332 35.872 29.957 35.7031 29.7344C35.872 29.512 35.9734 29.2356 35.9734 28.9354V27.6642Z" fill="#122261"/>
<path d="M17.956 25.7569C18.247 25.7569 18.4828 25.5211 18.4828 25.2301V24.6932C19.5787 24.4641 20.2193 23.5542 20.3623 22.7037C20.5482 21.5982 19.9701 20.6371 18.8897 20.2552C18.7559 20.2079 18.6192 20.1585 18.4828 20.1071V17.8697C18.8082 17.9581 19.0016 18.1211 19.02 18.1372C19.2341 18.3307 19.5645 18.3161 19.7606 18.1036C19.9579 17.8897 19.9444 17.5564 19.7305 17.3591C19.7027 17.3334 19.2402 16.9172 18.4827 16.7936V16.3533C18.4827 16.0622 18.2469 15.8264 17.9559 15.8264C17.6649 15.8264 17.429 16.0622 17.429 16.3533V16.8328C17.3651 16.8476 17.3005 16.8639 17.2345 16.8838C16.5214 17.0987 15.9886 17.7085 15.8441 18.4754C15.7121 19.1759 15.9373 19.852 16.4319 20.2399C16.6861 20.4392 17.0008 20.6219 17.429 20.8139V23.681C17.0637 23.6494 16.823 23.5532 16.4193 23.2893C16.1759 23.1299 15.8494 23.1982 15.69 23.4418C15.5307 23.6852 15.599 24.0117 15.8425 24.1711C16.4616 24.576 16.8884 24.7023 17.4289 24.7367V25.2301C17.4291 25.5211 17.665 25.7569 17.956 25.7569ZM17.0823 19.4108C16.9012 19.2688 16.8217 18.9782 16.8797 18.6705C16.9303 18.402 17.1011 18.0826 17.4292 17.9345V19.6374C17.2997 19.5645 17.1821 19.489 17.0823 19.4108ZM18.5385 21.2486C19.4143 21.5581 19.3605 22.3069 19.3232 22.5291C19.2523 22.9505 18.9668 23.3972 18.4828 23.5927V21.2287C18.5016 21.2353 18.5195 21.2419 18.5385 21.2486Z" fill="#122261"/>
<path d="M24.1145 23.4054C24.3896 23.5006 24.6894 23.354 24.7841 23.0789C25.0414 22.3318 25.172 21.5496 25.172 20.7539C25.172 16.8186 21.9703 13.6168 18.0348 13.6168C14.0994 13.6168 10.8977 16.8185 10.8977 20.7539C10.8977 24.6894 14.0994 27.8911 18.0348 27.8911C20.2125 27.8911 22.2435 26.915 23.6069 25.2133C23.7889 24.9863 23.7523 24.6547 23.5252 24.4727C23.2981 24.2908 22.9666 24.3275 22.7846 24.5545C21.6222 26.0052 19.891 26.8374 18.0348 26.8374C14.6804 26.8374 11.9514 24.1083 11.9514 20.7539C11.9514 17.3996 14.6804 14.6705 18.0348 14.6705C21.3892 14.6705 24.1183 17.3996 24.1183 20.7539C24.1183 21.4326 24.0071 22.0994 23.788 22.7358C23.6931 23.0109 23.8394 23.3108 24.1145 23.4054Z" fill="#122261"/>
</g>
<defs>
<clipPath id="clip0">
<rect width="36" height="36" fill="white"/>
</clipPath>
</defs>
</svg>
