<svg width="36" height="32" viewBox="0 0 36 32" fill="none" xmlns="http://www.w3.org/2000/svg">
<path d="M33.1875 10.3742H29.0294L22.6332 1.5744C22.0586 0.589746 20.793 0.239282 19.7878 0.796014C18.7688 1.36208 18.4024 2.64556 18.9687 3.66482C18.9849 3.69366 19.0028 3.7214 19.0228 3.74777L24.0397 10.3742H11.9603L16.9772 3.74777C16.9969 3.7214 17.0151 3.69366 17.0313 3.66482C17.5963 2.64803 17.234 1.36346 16.2114 0.795465C15.2084 0.239831 13.9427 0.59002 13.3671 1.57385L6.97055 10.3742H2.8125C1.26178 10.3742 0 11.6359 0 13.1867C0 14.4097 0.793762 15.4746 1.9119 15.8514C2.0311 15.9437 2.17996 15.9992 2.34201 15.9992C2.37442 15.9992 2.40491 16.0011 2.43677 16.0055C2.73944 16.0461 2.97922 16.2757 3.03415 16.5762L5.42615 29.7362C5.6088 30.7395 6.48166 31.4679 7.50174 31.4679H28.4983C29.5183 31.4679 30.3912 30.7395 30.5739 29.7359L32.9659 16.5765C33.0208 16.2757 33.2608 16.0461 33.5646 16.0055C33.5954 16.0011 33.6259 15.9992 33.658 15.9992C33.8211 15.9992 33.9711 15.9431 34.0903 15.8498C35.2093 15.4705 36 14.4075 36 13.1867C36 11.6359 34.7382 10.3742 33.1875 10.3742ZM20.1789 2.94494C20.0182 2.61233 20.1429 2.20721 20.4697 2.02593C20.81 1.83724 21.239 1.95892 21.4266 2.29702C21.4404 2.32229 21.456 2.34646 21.4728 2.36953L27.2909 10.3742H25.8033L20.1789 2.94494ZM14.5272 2.36981C14.544 2.34673 14.5591 2.32284 14.5731 2.29812C14.7612 1.95974 15.1905 1.83779 15.5294 2.02538C15.8568 2.20721 15.9821 2.61178 15.8211 2.94494L10.1967 10.3742H8.70914L14.5272 2.36981ZM33.1875 14.5929H20.8125C20.4241 14.5929 20.1094 14.9077 20.1094 15.296C20.1094 15.6844 20.4241 15.992 20.8125 15.992H31.6686C31.6318 16.0969 31.6027 16.2057 31.5824 16.3178L29.1901 29.4843C29.1294 29.8189 28.8383 30.0617 28.4983 30.0617H7.50174C7.16144 30.0617 6.87057 29.8189 6.8096 29.4846L4.4176 16.3246C4.39728 16.2126 4.36816 16.1038 4.33136 15.9992H15.1875C15.5759 15.9992 15.8906 15.6844 15.8906 15.296C15.8906 14.9077 15.5759 14.5929 15.1875 14.5929H2.8125C2.03055 14.5929 1.40625 13.9557 1.40625 13.1867C1.40625 12.4113 2.03714 11.7804 2.8125 11.7804H33.1875C33.9629 11.7804 34.5938 12.4113 34.5938 13.1867C34.5938 13.9675 33.9549 14.5929 33.1875 14.5929Z" fill="#122261"/>
</svg>
