<svg width="34" height="34" viewBox="0 0 34 34" fill="none" xmlns="http://www.w3.org/2000/svg">
<g clip-path="url(#clip0)">
<path d="M33.1968 15.9087C32.6879 15.4392 31.9955 15.1492 31.2972 15.1129C30.5042 15.0719 29.7613 15.3546 29.208 15.9082L25.4275 19.649C25.3528 19.5195 25.2675 19.3974 25.1718 19.284C24.7066 18.7317 24.0265 18.4277 23.2569 18.4277H17.9646C16.9667 18.4277 15.9932 18.2983 15.0713 18.0433C12.6677 17.3784 10.3715 17.864 8.43037 19.4485C7.64102 20.0928 7.06515 20.7937 6.70095 21.3047L5.75207 20.3839C5.6273 20.2627 5.45817 20.194 5.28411 20.194C5.28256 20.194 5.28126 20.194 5.2797 20.194C5.09942 20.1953 4.9251 20.2702 4.80007 20.3999L0.187172 25.1887C0.0636977 25.3169 -0.00348679 25.4891 0.000404203 25.667C0.0042952 25.8452 0.0787429 26.0144 0.207664 26.1371L8.00962 33.566C8.13906 33.6892 8.30508 33.7507 8.47084 33.7507C8.64489 33.7507 8.81895 33.683 8.94995 33.5486L13.5198 28.8602C13.6446 28.7321 13.7138 28.557 13.7104 28.378C13.7071 28.2016 13.6331 28.0315 13.5066 27.9085L13.1086 27.5225L14.0194 27.4201C14.5704 27.356 15.1307 27.3236 15.6853 27.3236H23.7373C25.0457 27.3236 26.157 27.0374 27.0405 26.473C27.0477 26.4683 27.055 26.4634 27.0623 26.4585C27.3787 26.2385 27.6659 25.9778 27.9154 25.6839L33.3415 19.3003C34.2702 18.208 34.2121 16.8449 33.1968 15.9087ZM8.45346 32.1417L1.61724 25.6323L5.29994 21.809L12.0962 28.4042L8.45346 32.1417ZM32.3224 18.4339L26.8962 24.8178C26.724 25.0204 26.5266 25.2004 26.309 25.3529C25.6457 25.7729 24.7806 25.9861 23.7373 25.9861H15.685C15.0793 25.9861 14.4669 26.0216 13.8674 26.0914L11.8653 26.3161L7.67344 22.2482C7.96475 21.8163 8.50041 21.1182 9.27627 20.4848C10.8892 19.168 12.719 18.7802 14.7146 19.3325C15.7527 19.6197 16.8461 19.7654 17.9646 19.7654H23.2569C24.2073 19.7654 24.461 20.5888 24.461 21.0752C24.461 21.4305 24.3469 21.7688 24.1479 22.0033C23.9321 22.2572 23.6252 22.3859 23.2359 22.3859H18.6289C18.2595 22.3859 17.9602 22.6855 17.9602 23.0549C17.9602 23.4243 18.2595 23.7236 18.6289 23.7236H23.2359C24.0135 23.7236 24.6994 23.4201 25.1673 22.8692C25.5567 22.4111 25.7787 21.8087 25.7974 21.1649L30.1514 16.8565C30.7737 16.2342 31.746 16.3904 32.2899 16.8921C32.5711 17.1515 32.9493 17.6965 32.3224 18.4339Z" fill="#122261"/>
<path d="M16.543 22.8767C16.4587 22.5169 16.0989 22.2941 15.7391 22.3781C15.3796 22.4624 15.1562 22.8222 15.2408 23.182L15.247 23.2093C15.3194 23.5174 15.5941 23.7255 15.8976 23.7255C15.9482 23.7255 15.9995 23.7198 16.0509 23.7078C16.4107 23.6235 16.6338 23.2635 16.5495 22.9039L16.543 22.8767Z" fill="#122261"/>
<path d="M4.5208 14.377H11.038C11.3928 14.377 11.7212 14.2618 11.9884 14.0672C12.2556 14.2618 12.584 14.377 12.9388 14.377H19.4562C19.8111 14.377 20.1395 14.2618 20.4067 14.0672C20.6739 14.2618 21.0023 14.377 21.3571 14.377H27.8743C28.7671 14.377 29.4935 13.6504 29.4935 12.7575V9.7184C29.4935 8.35344 28.7295 7.16773 27.5861 6.58278C28.1402 5.91457 28.4738 5.05751 28.4738 4.12367C28.4738 1.99634 26.743 0.265625 24.6157 0.265625C22.4884 0.265625 20.7577 1.99634 20.7577 4.12367C20.7577 5.05751 21.0912 5.91483 21.6453 6.58278C21.1512 6.83596 20.7281 7.20145 20.4067 7.64476C20.0853 7.20119 19.6622 6.8357 19.1678 6.58278C19.7219 5.91483 20.0555 5.05751 20.0555 4.12367C20.0555 1.99634 18.3247 0.265625 16.1974 0.265625C14.0701 0.265625 12.3394 1.99634 12.3394 4.12367C12.3394 5.05751 12.6732 5.91483 13.2273 6.58304C12.7329 6.83596 12.3098 7.20145 11.9884 7.64502C11.667 7.20145 11.2439 6.83596 10.7495 6.58278C11.3036 5.91483 11.6372 5.05751 11.6372 4.12393C11.6372 1.99634 9.90645 0.265625 7.77912 0.265625C5.65204 0.265625 3.92133 1.99634 3.92133 4.12393C3.92133 5.05751 4.25491 5.91483 4.80899 6.58304C3.66556 7.16799 2.90137 8.35396 2.90137 9.71866V12.7575C2.90137 13.6504 3.62795 14.377 4.5208 14.377ZM24.616 1.60335C26.0056 1.60335 27.1363 2.73381 27.1363 4.12367C27.1363 5.51328 26.0056 6.644 24.616 6.644C23.2261 6.644 22.0956 5.51354 22.0956 4.12367C22.0954 2.73381 23.2261 1.60335 24.616 1.60335ZM22.8782 7.56668C23.4009 7.83153 23.9911 7.98172 24.6157 7.98172C25.2406 7.98172 25.8307 7.83153 26.3532 7.56668C27.3926 7.74774 28.156 8.64345 28.156 9.7184V12.7575C28.156 12.9129 28.0297 13.0392 27.8743 13.0392H21.3571C21.202 13.0392 21.0757 12.9129 21.0757 12.7575V9.7184C21.0754 8.64371 21.8391 7.74774 22.8782 7.56668ZM16.1977 1.60335C17.5873 1.60335 18.718 2.73381 18.718 4.12367C18.718 5.51328 17.5873 6.644 16.1977 6.644C14.8078 6.644 13.6773 5.51354 13.6773 4.12367C13.6773 2.73381 14.8078 1.60335 16.1977 1.60335ZM14.4602 7.56668C14.9826 7.83153 15.5728 7.98172 16.1977 7.98172C16.8226 7.98172 17.4124 7.83153 17.9351 7.56668C18.9743 7.74774 19.738 8.64345 19.738 9.7184V12.7575C19.738 12.9129 19.6116 13.0392 19.4562 13.0392H12.9391C12.7837 13.0392 12.6574 12.9129 12.6574 12.7575V9.7184C12.6574 8.64371 13.4211 7.74774 14.4602 7.56668ZM7.77938 1.60335C9.16898 1.60335 10.2997 2.73381 10.2997 4.12367C10.2997 5.51328 9.16898 6.644 7.77938 6.644C6.38977 6.644 5.25905 5.51328 5.25905 4.12367C5.25905 2.73381 6.38977 1.60335 7.77938 1.60335ZM4.23909 9.7184C4.23909 8.64371 5.00276 7.74774 6.04192 7.56668C6.56461 7.83153 7.15448 7.98172 7.77938 7.98172C8.40427 7.98172 8.99414 7.83153 9.51683 7.56668C10.5562 7.74774 11.3197 8.64345 11.3197 9.7184V12.7575C11.3197 12.9129 11.1933 13.0392 11.038 13.0392H4.5208C4.36542 13.0392 4.23909 12.9129 4.23909 12.7575V9.7184Z" fill="#122261"/>
</g>
<defs>
<clipPath id="clip0">
<rect width="34" height="34" fill="white"/>
</clipPath>
</defs>
</svg>
