<svg width="64" height="72" viewBox="0 0 64 72" fill="none" xmlns="http://www.w3.org/2000/svg">
<path d="M62.5732 16.1168L32.5316 0.539691C32.2106 0.373488 31.8289 0.373488 31.5079 0.539691L1.46631 16.1168C1.09719 16.3081 0.865479 16.6891 0.865479 17.1049V70.5122C0.865479 71.1266 1.36367 71.6248 1.97813 71.6248H62.0613C62.6758 71.6248 63.174 71.1266 63.174 70.5122V17.1049C63.1741 16.6891 62.9423 16.3081 62.5732 16.1168ZM39.8083 68.2869H29.7944V58.273H30.9071V61.611C30.9071 62.2254 31.4053 62.7236 32.0197 62.7236H37.583C38.1975 62.7236 38.6957 62.2254 38.6957 61.611V58.273H39.8083V68.2869ZM33.1324 60.4983V58.273H36.4703V60.4983H33.1324ZM52.0475 68.2869H42.0336V58.273H43.1463V61.611C43.1463 62.2254 43.6445 62.7236 44.2589 62.7236H49.8222C50.4366 62.7236 50.9348 62.2254 50.9348 61.611V58.273H52.0475V68.2869ZM45.3716 60.4983V58.273H48.7095V60.4983H45.3716ZM52.0475 56.0477H42.0336V46.0338H43.1463V49.3718C43.1463 49.9862 43.6445 50.4844 44.2589 50.4844H49.8222C50.4366 50.4844 50.9348 49.9862 50.9348 49.3718V46.0338H52.0475V56.0477ZM45.3716 48.2591V46.0338H48.7095V48.2591H45.3716ZM53.1601 43.8085H40.921C40.3065 43.8085 39.8083 44.3067 39.8083 44.9212V56.0477H28.6818C28.0673 56.0477 27.5691 56.5459 27.5691 57.1603V69.3995H10.8793V32.682H53.1601V43.8085ZM54.2728 30.4567H9.7667V28.2314H54.2728V30.4567ZM60.9487 69.3995H55.3854V32.682C55.9999 32.682 56.4981 32.1838 56.4981 31.5693V27.1187C56.4981 26.5043 55.9999 26.0061 55.3854 26.0061H8.65404C8.03958 26.0061 7.54139 26.5043 7.54139 27.1187V31.5693C7.54139 32.1838 8.03958 32.682 8.65404 32.682V69.3995H3.09078V17.7814L32.0197 2.78057L60.9487 17.7814V69.3995Z" fill="#122261"/>
</svg>
