<svg width="69" height="69" viewBox="0 0 69 69" fill="none" xmlns="http://www.w3.org/2000/svg">
<rect width="68.9655" height="68.9655" rx="11.0345" fill="#152C6A"/>
<path d="M28.1174 37.2133L28.1227 37.2221L36.008 50.2506L37.188 49.5364L36.008 50.2506C36.3908 50.8831 37.0764 51.2695 37.8157 51.2695H46.0464C47.749 51.2695 48.7524 49.3591 47.7862 47.9573L38.3677 34.2937L52.4864 20.5922C53.8483 19.2705 52.9127 16.9629 51.0149 16.9629H42.9894C42.4067 16.9629 41.8498 17.2035 41.4505 17.6279L29.1303 30.7223L29.1253 30.7277L29.1203 30.7331L27.2354 32.7795C26.6023 33.4668 26.4959 34.4885 26.9738 35.2915L28.1591 34.5862L26.9738 35.2915L28.1174 37.2133L28.1174 37.2133Z" stroke="white" stroke-width="2.75862"/>
<path d="M17.8457 37.2133L17.851 37.2221L25.7363 50.2506L26.9163 49.5364L25.7363 50.2506C26.1191 50.8831 26.8047 51.2695 27.544 51.2695H35.7747C37.4772 51.2695 38.4807 49.3591 37.5144 47.9573L28.0959 34.2937L42.2147 20.5922C43.5766 19.2705 42.6409 16.9629 40.7432 16.9629H32.7177C32.135 16.9629 31.5781 17.2035 31.1788 17.6279L18.8586 30.7223L18.8536 30.7277L18.8486 30.7331L16.9637 32.7795C16.3306 33.4668 16.2242 34.4885 16.7021 35.2915L17.8874 34.5862L16.7021 35.2915L17.8457 37.2133L17.8457 37.2133Z" fill="white" stroke="white" stroke-width="2.75862"/>
</svg>
