<svg width="26" height="26" viewBox="0 0 26 26" fill="none" xmlns="http://www.w3.org/2000/svg">
<path d="M13.365 23.75C13.2073 24.1844 12.9198 24.5597 12.5414 24.8249C12.163 25.0901 11.7121 25.2324 11.25 25.2324C10.7879 25.2324 10.337 25.0901 9.95862 24.8249C9.58022 24.5597 9.29265 24.1844 9.135 23.75H13.365ZM21.75 21.5H19.5V14C19.5 9.035 15.8025 5 11.25 5C6.6975 5 3 9.035 3 14V21.5H0.75C0.551088 21.5 0.360322 21.579 0.21967 21.7197C0.0790176 21.8603 0 22.0511 0 22.25C0 22.4489 0.0790176 22.6397 0.21967 22.7803C0.360322 22.921 0.551088 23 0.75 23H21.75C21.9489 23 22.1397 22.921 22.2803 22.7803C22.421 22.6397 22.5 22.4489 22.5 22.25C22.5 22.0511 22.421 21.8603 22.2803 21.7197C22.1397 21.579 21.9489 21.5 21.75 21.5Z" fill="white"/>
<circle cx="18.5" cy="7.5" r="6.5" fill="#E74949" stroke="#E74949" stroke-width="2"/>
<path d="M21.313 5.057C21.181 3.99 20.4 3 18.838 3C16.836 3 16 4.518 16 7.026C16 9.578 16.605 11.217 18.937 11.217C20.653 11.217 21.566 10.062 21.566 8.544C21.566 6.872 20.543 5.904 19.102 5.904C18.266 5.904 17.474 6.256 17.078 6.916C17.111 4.815 17.694 4.045 18.827 4.045C19.619 4.045 20.004 4.408 20.158 5.057H21.313ZM18.827 6.96C19.883 6.96 20.367 7.642 20.367 8.599C20.367 9.545 19.795 10.172 18.871 10.172C17.804 10.172 17.221 9.512 17.221 8.522C17.221 7.455 18.002 6.96 18.827 6.96Z" fill="white"/>
</svg>
