<svg width="36" height="34" viewBox="0 0 36 34" fill="none" xmlns="http://www.w3.org/2000/svg">
<path d="M8.17163 33.5193C8.30896 33.6563 8.48859 33.7247 8.66849 33.7247C8.84839 33.7247 9.02829 33.6561 9.16562 33.519L11.3247 31.3599C12.0281 30.6571 12.3668 29.6944 12.269 28.7216L13.0432 27.9739C13.6577 27.3818 14.4654 27.0555 15.3174 27.0555H24.575C26.2334 27.0555 27.8009 26.4185 28.9885 25.262C29.0061 25.2449 29.0226 25.2271 29.0382 25.2081L35.3372 17.644C36.3381 16.4597 36.1884 14.6816 35.003 13.6796C33.8253 12.687 32.0603 12.8298 31.0564 13.9944L30.3761 14.6981V0.968719C30.3761 0.580353 30.0611 0.265594 29.673 0.265594H11.6018C11.2137 0.265594 10.8987 0.580353 10.8987 0.968719V16.7223C8.17575 17.2939 6.01611 18.9841 4.85294 21.4549C3.93558 21.4074 3.04102 21.7447 2.37717 22.4094L0.207093 24.5687C0.0747078 24.7006 0.000275416 24.8796 7.57435e-07 25.0664C-0.000273901 25.2534 0.0741585 25.4325 0.206269 25.5646L8.17163 33.5193ZM28.9698 1.67184V16.1521L26.9349 18.256C26.4111 17.6125 25.613 17.2115 24.7508 17.2115H16.5984C16.5534 17.2115 16.5045 17.201 16.4553 17.1812C15.36 16.7346 14.2001 16.5083 13.0084 16.5083C12.773 16.5083 12.5384 16.5168 12.3052 16.5322V1.67184H28.9698ZM11.7026 18.0071C13.1251 17.8014 14.5475 17.9223 15.9272 18.4845C16.1463 18.5729 16.3724 18.618 16.5984 18.618H24.7508C25.5133 18.618 26.1571 19.2398 26.1571 20.0242C26.1571 20.7996 25.5262 21.4305 24.7508 21.4305H18.6334C18.2453 21.4305 17.9302 21.7452 17.9302 22.1336C17.9302 22.522 18.2453 22.8367 18.6334 22.8367H24.7508C26.3018 22.8367 27.5633 21.575 27.5633 20.0242C27.5633 19.9001 27.5543 19.7768 27.5383 19.6551C27.685 19.5049 31.9351 15.1092 32.0823 14.9568C32.093 14.9455 32.1037 14.934 32.1136 14.9222C32.6146 14.3306 33.5042 14.2559 34.0961 14.7546C34.6885 15.2553 34.7635 16.1444 34.2598 16.7404L27.9819 24.2792C27.0615 25.1631 25.853 25.6492 24.575 25.6492H15.3174C14.0993 25.6492 12.9452 26.1151 12.0668 26.9618L11.7567 27.2612C11.6326 27.0703 11.4881 26.8921 11.325 26.7292L7.00626 22.4105C6.77554 22.1797 6.51379 21.988 6.23062 21.8367C7.30481 19.718 9.22357 18.3675 11.7026 18.0071ZM3.37061 23.4047C4.10944 22.6648 5.29019 22.6829 6.01172 23.405L10.331 27.724C11.055 28.4466 11.0679 29.6288 10.3307 30.3651L8.66794 32.0276L1.69904 25.0681L3.37061 23.4047Z" fill="#122261"/>
</svg>
