<svg width="31" height="35" viewBox="0 0 31 35" fill="none" xmlns="http://www.w3.org/2000/svg">
<path d="M30.5171 7.71757L15.7515 0.061328C15.5938 -0.0203613 15.4062 -0.0203613 15.2484 0.061328L0.482812 7.71757C0.301386 7.81156 0.1875 7.99886 0.1875 8.20319V34.4531C0.1875 34.7552 0.432363 35 0.734374 35H30.2656C30.5676 35 30.8124 34.7552 30.8124 34.4531V8.20319C30.8125 7.99886 30.6986 7.81156 30.5171 7.71757ZM19.3281 33.3594H14.4062V28.4375H14.9531V30.0781C14.9531 30.3802 15.198 30.625 15.5 30.625H18.2343C18.5364 30.625 18.7812 30.3802 18.7812 30.0781V28.4375H19.3281V33.3594ZM16.0468 29.5313V28.4375H17.6875V29.5313H16.0468ZM25.3437 33.3594H20.4218V28.4375H20.9687V30.0781C20.9687 30.3802 21.2136 30.625 21.5156 30.625H24.25C24.552 30.625 24.7968 30.3802 24.7968 30.0781V28.4375H25.3437V33.3594ZM22.0625 29.5313V28.4375H23.7031V29.5313H22.0625ZM25.3437 27.3438H20.4218V22.4219H20.9687V24.0625C20.9687 24.3645 21.2136 24.6094 21.5156 24.6094H24.25C24.552 24.6094 24.7968 24.3645 24.7968 24.0625V22.4219H25.3437V27.3438ZM22.0625 23.5157V22.4219H23.7031V23.5157H22.0625ZM25.8906 21.3282H19.875C19.573 21.3282 19.3281 21.573 19.3281 21.875V27.3438H13.8593C13.5573 27.3438 13.3125 27.5886 13.3125 27.8907V33.9063H5.10937V15.8594H25.8906V21.3282ZM26.4375 14.7657H4.56249V13.6719H26.4375V14.7657ZM29.7187 33.9063H26.9843V15.8594C27.2863 15.8594 27.5312 15.6146 27.5312 15.3126V13.1251C27.5312 12.823 27.2863 12.5782 26.9843 12.5782H4.01562C3.71361 12.5782 3.46874 12.823 3.46874 13.1251V15.3126C3.46874 15.6146 3.71361 15.8594 4.01562 15.8594V33.9063H1.28125V8.53569L15.5 1.16273L29.7187 8.53569V33.9063Z" fill="#122261"/>
</svg>
